<mxfile host="app.diagrams.net" modified="2022-01-25T04:38:12.382Z" agent="5.0 (Macintosh)" etag="gPTfxHVYlX_tNQ-IRL0t" version="16.4.5" type="github">
  <diagram id="VOy6tj85X6CU1Siy_1cG" name="Page-1">
    <mxGraphModel dx="579" dy="737" grid="1" gridSize="10" guides="1" tooltips="1" connect="1" arrows="1" fold="1" page="1" pageScale="1" pageWidth="850" pageHeight="1100" math="0" shadow="0">
      <root>
        <mxCell id="0" />
        <mxCell id="1" parent="0" />
        <mxCell id="OaQHD73z1mgd5Usdof8Q-1" value="&lt;div&gt;Color Mode Button Clicked&lt;/div&gt;" style="rounded=1;whiteSpace=wrap;html=1;fillColor=#d5e8d4;strokeColor=#82b366;" parent="1" vertex="1">
          <mxGeometry x="80" y="420" width="120" height="40" as="geometry" />
        </mxCell>
        <mxCell id="OaQHD73z1mgd5Usdof8Q-2" value="" style="endArrow=classic;html=1;rounded=0;shadow=0;" parent="1" edge="1">
          <mxGeometry width="50" height="50" relative="1" as="geometry">
            <mxPoint x="200" y="440" as="sourcePoint" />
            <mxPoint x="260" y="439.5" as="targetPoint" />
          </mxGeometry>
        </mxCell>
        <mxCell id="OaQHD73z1mgd5Usdof8Q-3" value="Prompt up color selector" style="rounded=1;whiteSpace=wrap;html=1;fillColor=#d5e8d4;strokeColor=#82b366;" parent="1" vertex="1">
          <mxGeometry x="260" y="420" width="120" height="40" as="geometry" />
        </mxCell>
        <mxCell id="OaQHD73z1mgd5Usdof8Q-14" value="&lt;div&gt;Rainbow Mode Button Clicked&lt;/div&gt;" style="rounded=1;whiteSpace=wrap;html=1;fillColor=#d5e8d4;strokeColor=#82b366;" parent="1" vertex="1">
          <mxGeometry x="80" y="540" width="120" height="50" as="geometry" />
        </mxCell>
        <mxCell id="OaQHD73z1mgd5Usdof8Q-15" value="" style="endArrow=classic;html=1;rounded=0;shadow=0;" parent="1" edge="1">
          <mxGeometry width="50" height="50" relative="1" as="geometry">
            <mxPoint x="200" y="560" as="sourcePoint" />
            <mxPoint x="260" y="559.5" as="targetPoint" />
          </mxGeometry>
        </mxCell>
        <mxCell id="OaQHD73z1mgd5Usdof8Q-16" value="Formula for random colors will be run on each hover" style="rounded=1;whiteSpace=wrap;html=1;fillColor=#d5e8d4;strokeColor=#82b366;" parent="1" vertex="1">
          <mxGeometry x="260" y="540" width="120" height="50" as="geometry" />
        </mxCell>
        <mxCell id="OaQHD73z1mgd5Usdof8Q-17" value="Eraser Button Clicked" style="rounded=1;whiteSpace=wrap;html=1;fillColor=#d5e8d4;strokeColor=#82b366;" parent="1" vertex="1">
          <mxGeometry x="80" y="680" width="120" height="50" as="geometry" />
        </mxCell>
        <mxCell id="OaQHD73z1mgd5Usdof8Q-18" value="" style="endArrow=classic;html=1;rounded=0;shadow=0;" parent="1" edge="1">
          <mxGeometry width="50" height="50" relative="1" as="geometry">
            <mxPoint x="200" y="700" as="sourcePoint" />
            <mxPoint x="260" y="699.5" as="targetPoint" />
          </mxGeometry>
        </mxCell>
        <mxCell id="OaQHD73z1mgd5Usdof8Q-19" value="&lt;div&gt;Each hover will restore each grid to default (white)&lt;/div&gt;" style="rounded=1;whiteSpace=wrap;html=1;fillColor=#d5e8d4;strokeColor=#82b366;" parent="1" vertex="1">
          <mxGeometry x="260" y="680" width="120" height="50" as="geometry" />
        </mxCell>
        <mxCell id="OaQHD73z1mgd5Usdof8Q-20" value="&lt;div&gt;Clear Button Clicked&lt;/div&gt;" style="rounded=1;whiteSpace=wrap;html=1;fillColor=#d5e8d4;strokeColor=#82b366;" parent="1" vertex="1">
          <mxGeometry x="80" y="820" width="120" height="40" as="geometry" />
        </mxCell>
        <mxCell id="OaQHD73z1mgd5Usdof8Q-21" value="" style="endArrow=classic;html=1;rounded=0;shadow=0;entryX=0;entryY=0.5;entryDx=0;entryDy=0;" parent="1" edge="1" target="OaQHD73z1mgd5Usdof8Q-22">
          <mxGeometry width="50" height="50" relative="1" as="geometry">
            <mxPoint x="200" y="840" as="sourcePoint" />
            <mxPoint x="260" y="839.5" as="targetPoint" />
          </mxGeometry>
        </mxCell>
        <mxCell id="OaQHD73z1mgd5Usdof8Q-22" value="All grids reset to default" style="rounded=1;whiteSpace=wrap;html=1;fillColor=#d5e8d4;strokeColor=#82b366;" parent="1" vertex="1">
          <mxGeometry x="260" y="820" width="120" height="40" as="geometry" />
        </mxCell>
        <mxCell id="OaQHD73z1mgd5Usdof8Q-23" value="Default Hover" style="rounded=1;whiteSpace=wrap;html=1;fillColor=#d5e8d4;strokeColor=#82b366;" parent="1" vertex="1">
          <mxGeometry x="80" y="70" width="120" height="40" as="geometry" />
        </mxCell>
        <mxCell id="OaQHD73z1mgd5Usdof8Q-24" value="" style="endArrow=classic;html=1;rounded=0;shadow=0;" parent="1" edge="1">
          <mxGeometry width="50" height="50" relative="1" as="geometry">
            <mxPoint x="200" y="90" as="sourcePoint" />
            <mxPoint x="260" y="89.5" as="targetPoint" />
          </mxGeometry>
        </mxCell>
        <mxCell id="OaQHD73z1mgd5Usdof8Q-26" value="" style="endArrow=classic;html=1;rounded=0;shadow=0;entryX=0;entryY=0.5;entryDx=0;entryDy=0;" parent="1" edge="1" target="OaQHD73z1mgd5Usdof8Q-27">
          <mxGeometry width="50" height="50" relative="1" as="geometry">
            <mxPoint x="200" y="90" as="sourcePoint" />
            <mxPoint x="260" y="89.5" as="targetPoint" />
          </mxGeometry>
        </mxCell>
        <mxCell id="OaQHD73z1mgd5Usdof8Q-27" value="User hovers mouse over space" style="rounded=1;whiteSpace=wrap;html=1;fillColor=#d5e8d4;strokeColor=#82b366;" parent="1" vertex="1">
          <mxGeometry x="260" y="70" width="120" height="40" as="geometry" />
        </mxCell>
        <mxCell id="OaQHD73z1mgd5Usdof8Q-28" value="" style="endArrow=classic;html=1;rounded=0;shadow=0;" parent="1" edge="1">
          <mxGeometry width="50" height="50" relative="1" as="geometry">
            <mxPoint x="380" y="90" as="sourcePoint" />
            <mxPoint x="440" y="89.5" as="targetPoint" />
          </mxGeometry>
        </mxCell>
        <mxCell id="OaQHD73z1mgd5Usdof8Q-29" value="eventListen will pick up the hover and change its color to black" style="rounded=1;whiteSpace=wrap;html=1;fillColor=#d5e8d4;strokeColor=#82b366;" parent="1" vertex="1">
          <mxGeometry x="440" y="55" width="120" height="70" as="geometry" />
        </mxCell>
        <mxCell id="1D4M1qkfJCm0VRirNysw-3" value="" style="endArrow=classic;html=1;rounded=0;shadow=0;" edge="1" parent="1">
          <mxGeometry width="50" height="50" relative="1" as="geometry">
            <mxPoint x="380" y="840" as="sourcePoint" />
            <mxPoint x="440" y="840" as="targetPoint" />
          </mxGeometry>
        </mxCell>
        <mxCell id="1D4M1qkfJCm0VRirNysw-4" value="&lt;div&gt;Opens popup asking user for new dimensions &lt;br&gt;&lt;/div&gt;&lt;div&gt;of new grid (stating it must be under 100x100)&lt;br&gt;&lt;/div&gt;" style="rounded=1;whiteSpace=wrap;html=1;fillColor=#d5e8d4;strokeColor=#82b366;" vertex="1" parent="1">
          <mxGeometry x="440" y="795" width="130" height="105" as="geometry" />
        </mxCell>
        <mxCell id="1D4M1qkfJCm0VRirNysw-7" value="" style="endArrow=classic;html=1;rounded=0;shadow=0;entryX=0;entryY=0.5;entryDx=0;entryDy=0;" edge="1" parent="1">
          <mxGeometry width="50" height="50" relative="1" as="geometry">
            <mxPoint x="570" y="840" as="sourcePoint" />
            <mxPoint x="630" y="840" as="targetPoint" />
          </mxGeometry>
        </mxCell>
        <mxCell id="1D4M1qkfJCm0VRirNysw-9" value="&lt;div&gt;Is user input &lt;br&gt;&lt;/div&gt;&lt;div&gt;&amp;lt;= 100?&lt;br&gt;&lt;/div&gt;" style="rhombus;whiteSpace=wrap;html=1;rounded=1;fillColor=#fff2cc;strokeColor=#d6b656;" vertex="1" parent="1">
          <mxGeometry x="630" y="785" width="110" height="110" as="geometry" />
        </mxCell>
        <mxCell id="1D4M1qkfJCm0VRirNysw-11" value="" style="endArrow=classic;html=1;rounded=0;shadow=0;exitX=0.5;exitY=1;exitDx=0;exitDy=0;" edge="1" parent="1" source="1D4M1qkfJCm0VRirNysw-9">
          <mxGeometry relative="1" as="geometry">
            <mxPoint x="610" y="950" as="sourcePoint" />
            <mxPoint x="685" y="950" as="targetPoint" />
          </mxGeometry>
        </mxCell>
        <mxCell id="1D4M1qkfJCm0VRirNysw-12" value="Yes" style="edgeLabel;resizable=0;html=1;align=center;verticalAlign=middle;rounded=1;" connectable="0" vertex="1" parent="1D4M1qkfJCm0VRirNysw-11">
          <mxGeometry relative="1" as="geometry" />
        </mxCell>
        <mxCell id="1D4M1qkfJCm0VRirNysw-18" value="" style="edgeStyle=segmentEdgeStyle;endArrow=classic;html=1;rounded=0;shadow=0;exitX=0.5;exitY=0;exitDx=0;exitDy=0;entryX=0.5;entryY=0;entryDx=0;entryDy=0;" edge="1" parent="1" source="1D4M1qkfJCm0VRirNysw-9" target="1D4M1qkfJCm0VRirNysw-4">
          <mxGeometry width="50" height="50" relative="1" as="geometry">
            <mxPoint x="600" y="750" as="sourcePoint" />
            <mxPoint x="650" y="700" as="targetPoint" />
            <Array as="points">
              <mxPoint x="685" y="750" />
              <mxPoint x="505" y="750" />
            </Array>
          </mxGeometry>
        </mxCell>
        <mxCell id="1D4M1qkfJCm0VRirNysw-19" value="No" style="edgeLabel;resizable=0;html=1;align=center;verticalAlign=middle;rounded=1;" connectable="0" vertex="1" parent="1">
          <mxGeometry x="710" y="933" as="geometry">
            <mxPoint x="-113" y="-185" as="offset" />
          </mxGeometry>
        </mxCell>
        <mxCell id="1D4M1qkfJCm0VRirNysw-20" value="New grid is created with loop" style="rounded=1;whiteSpace=wrap;html=1;fillColor=#d5e8d4;strokeColor=#82b366;" vertex="1" parent="1">
          <mxGeometry x="625" y="950" width="120" height="50" as="geometry" />
        </mxCell>
      </root>
    </mxGraphModel>
  </diagram>
</mxfile>
